{"title":"Hall.Pass.2011.720p.BRRip.x264.Feel-Free","uid":6428663,"size":2827014424,"categoryP":"video","categoryS":"hd___movies","magnet":"?xt=urn:btih:d8a89e4458f4ef7ecf92d428bdfa120a7d2fea6a&amp;dn=Hall.Pass.2011.720p.BRRip.x264.Feel-Free&amp;tr=udp%3A%2F%2Ftracker.openbittorrent.com%3A80&amp;tr=udp%3A%2F%2Fopen.demonii.com%3A1337&amp;tr=udp%3A%2F%2Ftracker.coppersurfer.tk%3A6969&amp;tr=udp%3A%2F%2Fexodus.desync.com%3A6969","seeders":0,"leechers":1,"uploader":"hiest","files":-1,"time":1306566326,"description":" Full Credits to (Pitic):\n ######## ######## ######## ##          ######## ########  ######## ######\n ##       ##       ##       ##          ##       ##     ## ##       ##       \n ##       ##       ##       ##          ##       ##     ## ##       ##       \n ######   ######   ######   ##          ######   ########  ######   ######   \n ##       ##       ##       ##          ##       ##   ##   ##       ##       \n ##       ##       ##       ##          ##       ##    ##  ##       ##       \n ##       ######## ######## ########    ##       ##     ## ######## ######\n\n\n Genre:Comedy\n Language:English\n IMDb:\n &lt;a href=&quot; http://www.imdb.com/title/tt0480687/&quot; rel=&quot;nofollow&quot; target=&quot;_NEW&quot;&gt; http://www.imdb.com/title/tt0480687/&lt;/a&gt;\n Source:BluRay x264-Felony\n\n Format : MPEG-4\n Format profile : Base Media\n Codec ID : isom\n File size : 2.63 GiB\n Duration : 1h 51mn\n Overall bit rate : 3 373 Kbps\n\n Video\n ID : 1\n Format : AVC\n Format/Info : Advanced Video Codec\n Format profile : &lt;a class=&quot;__cf_email__&quot; href=&quot;/cdn-cgi/l/email-protection&quot; data-cfemail=&quot;f3bb9a949bb3bfc7ddc2&quot;&gt;[email&amp;#160;protected]&lt;/a&gt;&lt;script cf-hash='f9e31' type=&quot;text/javascript&quot;&gt;\n/* &lt;![CDATA[ */!function(){try{var t=&quot;currentScript&quot;in document?document.currentScript:function(){for(var t=document.getElementsByTagName(&quot;script&quot;),e=t.length;e--;)if(t[e].getAttribute(&quot;cf-hash&quot;))return t[e]}();if(t&amp;&amp;t.previousSibling){var e,r,n,i,c=t.previousSibling,a=c.getAttribute(&quot;data-cfemail&quot;);if(a){for(e=&quot;&quot;,r=parseInt(a.substr(0,2),16),n=2;a.length-n;n+=2)i=parseInt(a.substr(n,2),16)^r,e+=String.fromCharCode(i);e=document.createTextNode(e),c.parentNode.replaceChild(e,c)}}}catch(u){}}();/* ]]&gt; */&lt;/script&gt;\n Format settings, CABAC : Yes\n Format settings, ReFrames : 3 frames\n Format settings, GOP : N=1\n Codec ID : avc1\n Codec ID/Info : Advanced Video Coding\n Duration : 1h 51mn\n Bit rate mode : Variable\n Bit rate : 3 000 Kbps\n Maximum bit rate : 24.1 Mbps\n Width : 1 280 pixels\n Height : 536 pixels\n Display aspect ratio : 2.35:1\n Frame rate mode : Constant\n Frame rate : 23.976 fps\n Color space : YUV\n Chroma subsampling : 4:2:0\n Bit depth : 8 bits\n Scan type : Progressive\n Bits/(Pixel*Frame) : 0.182\n Stream size : 2.32 GiB (88%)\n Writing library : x264\n\n Audio\n ID : 2\n Format : AAC\n Format/Info : Advanced Audio Codec\n Format version : Version 4\n Format profile : LC\n Format settings, SBR : No\n Codec ID : 40\n Duration : 1h 51mn\n Bit rate mode : Variable\n Bit rate : 398 Kbps\n Maximum bit rate : 537 Kbps\n Channel(s) : 6 channels\n Channel positions : Front: L C R, Side: L R, LFE\n Sampling rate : 48.0 KHz\n Stream size : 317 MiB (12%)\n\n\n Plot:\n A married man is granted the opportunity to have an affair by his wife. \n Joined in the fun by his best pal, things get a little out of control when \n both wives start engaging in extramarital activities as well.\n\n\n Full Credits to (Pitic):\n ######## ######## ######## ##          ######## ########  ######## ######\n ##       ##       ##       ##          ##       ##     ## ##       ##       \n ##       ##       ##       ##          ##       ##     ## ##       ##       \n ######   ######   ######   ##          ######   ########  ######   ######   \n ##       ##       ##       ##          ##       ##   ##   ##       ##       \n ##       ##       ##       ##          ##       ##    ##  ##       ##       \n ##       ######## ######## ########    ##       ##     ## ######## ######","torrent":{"xt":"urn:btih:d8a89e4458f4ef7ecf92d428bdfa120a7d2fea6a","amp;dn":"Hall.Pass.2011.720p.BRRip.x264.Feel-Free","amp;tr":["udp%3A%2F%2Ftracker.openbittorrent.com%3A80","udp%3A%2F%2Fopen.demonii.com%3A1337","udp%3A%2F%2Ftracker.coppersurfer.tk%3A6969","udp%3A%2F%2Fexodus.desync.com%3A6969"],"infoHash":"d8a89e4458f4ef7ecf92d428bdfa120a7d2fea6a","infoHashBuffer":{"type":"Buffer","data":[216,168,158,68,88,244,239,126,207,146,212,40,189,250,18,10,125,47,234,106]},"announce":[],"urlList":[]}}